HIERARCHY
ROOT ui
{
	 OFFSET 0 0 0
	 CHANNELS 3 XPosition YPosition Z Position
	 EndSite
	 {
	 OFFSET 0 -1 0
	 }
}
ROOT li
{
	 OFFSET 0 0 0
	 CHANNELS 3 XPosition YPosition Z Position
	 EndSite
	 {
	 OFFSET 0 -1 0
	 }
}
ROOT ul
{
	 OFFSET 0 0 0
	 CHANNELS 3 XPosition YPosition Z Position
	 EndSite
	 {
	 OFFSET 0 -1 0
	 }
}
ROOT ll
{
	 OFFSET 0 0 0
	 CHANNELS 3 XPosition YPosition Z Position
	 EndSite
	 {
	 OFFSET 0 -1 0
	 }
}
ROOT tt
{
	 OFFSET 0 0 0
	 CHANNELS 3 XPosition YPosition Z Position
	 EndSite
	 {
	 OFFSET 0 -1 0
	 }
}
ROOT tb
{
	 OFFSET 0 0 0
	 CHANNELS 3 XPosition YPosition Z Position
	 EndSite
	 {
	 OFFSET 0 -1 0
	 }
}
ROOT td
{
	 OFFSET 0 0 0
	 CHANNELS 3 XPosition YPosition Z Position
	 EndSite
	 {
	 OFFSET 0 -1 0
	 }
}
ROOT v
{
	 OFFSET 0 0 0
	 CHANNELS 3 XPosition YPosition Z Position
	 EndSite
	 {
	 OFFSET 0 -1 0
	 }
}
ROOT bn
{
	 OFFSET 0 0 0
	 CHANNELS 3 XPosition YPosition Z Position
	 EndSite
	 {
	 OFFSET 0 -1 0
	 }
}
MOTION
Frames: 16
Frame Time: 0.002
-0.012377428054809571	-0.012547282218933106	0		0.5445699462890625	-2.542052001953125	0		-0.9246065673828125	0.43442813110351564	0		-0.20800833129882812	-3.116253173828125	0		1.6370087890625	-0.605181396484375	0		3.21284912109375	-0.09275849151611328	0		4.4925400390625	0.10451274871826172	0		5.68792138671875	0.1440930938720703	0		-0.3698990173339844	5.91063818359375	0		
0.010402262687683106	-0.005316825866699218	0		0.549138427734375	-2.53463134765625	0		-0.9148934936523437	0.4339072265625	0		-0.27116616821289063	-3.083875732421875	0		1.59803369140625	-0.5752750244140625	0		3.203558837890625	-0.09037744903564453	0		4.48734521484375	0.11273294830322265	0		5.6967451171875	0.1041104736328125	0		-0.40280062866210936	5.9046376953125	0		
-0.0028535211086273193	-0.0016387230157852172	0		0.5208865356445312	-2.51380322265625	0		-0.906032958984375	0.4433746337890625	0		-0.23945843505859374	-3.06277099609375	0		1.6151759033203126	-0.5381375122070312	0		3.2054931640625	-0.07218079376220703	0		4.46524658203125	0.12713507080078126	0		5.70310009765625	0.13332594299316405	0		-0.38647210693359374	5.91296728515625	0		
0.046850418090820314	-0.002824258089065552	0		0.5443106079101563	-2.51868896484375	0		-0.9203228149414062	0.4401259460449219	0		-0.27674517822265626	-3.041775390625	0		1.5913046875	-0.5034856872558594	0		3.188263427734375	-0.06776456451416016	0		4.45474072265625	0.10934510040283203	0		5.699236328125	0.11781281280517578	0		-0.3881715393066406	5.91651025390625	0		
-0.008335729598999024	0.003367871046066284	0		0.5359673461914063	-2.50717529296875	0		-0.8895966186523437	0.436252685546875	0		-0.28205667114257815	-3.024226318359375	0		1.5666607666015624	-0.45384417724609377	0		3.150867919921875	-0.07710466766357423	0		4.4286025390625	0.1177379379272461	0		5.69610986328125	0.10394915771484375	0		-0.3548026733398438	5.9225595703125	0		
0.00628778600692749	-0.0063979811668396	0		0.4996591796875	-2.4943037109375	0		-0.925792724609375	0.43725836181640626	0		-0.2843078308105469	-3.0037392578125	0		1.5755264892578125	-0.44267758178710936	0		3.1657412109375	-0.06816682434082032	0		4.4163203125	0.11392327880859375	0		5.691732421875	0.11949874877929688	0		-0.353504150390625	5.9220146484375	0		
-0.015882640838623046	-0.001683714985847473	0		0.5032568359375	-2.4899892578125	0		-0.9209246826171875	0.441690673828125	0		-0.2736351928710937	-2.99044873046875	0		1.5747772216796876	-0.40439739990234375	0		3.15163232421875	-0.058853515625	0		4.40999609375	0.1060137710571289	0		5.70424853515625	0.09294321441650391	0		-0.33803567504882814	5.93325732421875	0		
0.015979437828063964	0.004276123046875	0		0.483982177734375	-2.477376953125	0		-0.92110205078125	0.44217144775390627	0		-0.2727784118652344	-2.965042236328125	0		1.527953369140625	-0.37249935913085935	0		3.15141015625	-0.05873909378051758	0		4.4048984375	0.11408283233642579	0		5.70281005859375	0.12047401428222657	0		-0.3576485595703125	5.93895947265625	0		
-0.009229535102844239	0.005002985954284668	0		0.535482421875	-2.4827529296875	0		-0.896139892578125	0.45228814697265624	0		-0.2868584899902344	-2.936445068359375	0		1.5239859619140625	-0.3521949157714844	0		3.151193115234375	-0.05862823104858399	0		4.38653271484375	0.10233499145507813	0		5.702646484375	0.12028952026367187	0		-0.35734713745117186	5.93937353515625	0		
0.0103501033782959	-0.009901759147644042	0		0.47529690551757814	-2.465594482421875	0		-0.9373651123046876	0.44930181884765624	0		-0.2910587158203125	-2.9179970703125	0		1.5110533447265626	-0.32977029418945314	0		3.142006591796875	-0.05639020156860351	0		4.3791787109375	0.091445556640625	0		5.70542626953125	0.13560200500488281	0		-0.1906856689453125	5.9664658203125	0		
-0.01673621368408203	-1.6581399738788605E-4	0		0.5179326782226562	-2.46287060546875	0		-0.937544677734375	0.44973397827148437	0		-0.29220187377929685	-2.896602294921875	0		1.50117822265625	-0.30338784790039064	0		3.103833984375	-0.0527390022277832	0		4.36488916015625	0.08566817474365235	0		5.71429541015625	0.09364734649658203	0		-0.3378907470703125	5.935896484375	0		
-0.020012922286987304	-0.0037686939239501955	0		0.4546419677734375	-2.45467041015625	0		-0.9326780395507812	0.4540831909179687	0		-0.410251220703125	-2.86857470703125	0		1.5070335693359376	-0.29622549438476564	0		3.1054267578125	-0.06563194274902344	0		4.35857666015625	0.07879767608642578	0		5.71062158203125	0.1040633544921875	0		-0.35564776611328125	5.9395263671875	0		
0.022879796981811522	0.004975380897521972	0		0.537215087890625	-2.457520263671875	0		-0.9237660522460938	0.462366455078125	0		-0.39541647338867186	-2.850411376953125	0		1.5061229248046875	-0.2719626159667969	0		3.145400146484375	-0.051050884246826175	0		4.36323876953125	0.07079236602783204	0		5.72119482421875	0.11230833435058593	0		-0.389569580078125	5.93437939453125	0		
-0.020198381423950196	0.016931549072265625	0		0.46616070556640626	-2.433199951171875	0		-0.9330889892578125	0.4549004211425781	0		-0.41349996948242185	-2.826784912109375	0		1.5417935791015625	-0.2772130737304688	0		3.103134521484375	-0.05229642868041992	0		4.35503369140625	0.07299137878417969	0		5.70969677734375	0.12827810668945314	0		-0.33642617797851565	5.936001953125	0		
0.004268788814544678	-0.0030684990882873537	0		0.5156741943359375	-2.440583740234375	0		-0.8973143310546875	0.45479266357421877	0		-0.4047625427246094	-2.816538818359375	0		1.4917210693359375	-0.26323709106445314	0		3.10062890625	-0.07008622741699219	0		4.3576201171875	0.061060440063476565	0		5.7143828125	0.10741216278076172	0		-0.3373294372558594	5.93738720703125	0		
-0.012998135566711425	-0.0034709351062774656	0		0.4674301452636719	-2.43057080078125	0		-0.9335419921875	0.45570657348632815	0		-0.4099158020019531	-2.79909375	0		1.5273785400390625	-0.2684701232910156	0		3.10527099609375	-0.07695796966552734	0		4.35126953125	0.0542822265625	0		5.7148759765625	0.10231664276123047	0		-0.3372843322753906	5.93775927734375	0		
